<svg xmlns="http://www.w3.org/2000/svg" version="1.1" xmlns:xlink="http://www.w3.org/1999/xlink" xmlns:svgjs="http://svgjs.dev/svgjs" width="128" height="128" viewBox="0 0 128 128"><g transform="matrix(0.8046875,0,0,0.8046875,12.694220824301937,7.556766570723681)"><svg viewBox="0 0 86 95" data-background-color="#0c1d36" preserveAspectRatio="xMidYMid meet" height="141" width="128" xmlns="http://www.w3.org/2000/svg" xmlns:xlink="http://www.w3.org/1999/xlink"><g id="tight-bounds" transform="matrix(1,0,0,1,-0.16216496009676007,-0.24049999999999727)"><svg viewBox="0 0 86.32432992019352 95.481" height="95.481" width="86.32432992019352"><g><svg viewBox="0 0 86.32432992019352 95.481" height="95.481" width="86.32432992019352"><g><svg viewBox="0 0 86.32432992019352 95.481" height="95.481" width="86.32432992019352"><g id="textblocktransform"><svg viewBox="0 0 86.32432992019352 95.481" height="95.481" width="86.32432992019352" id="textblock"><g><svg viewBox="0 0 86.32432992019352 95.481" height="95.481" width="86.32432992019352"><g><svg viewBox="0 0 86.32432992019352 95.481" height="95.481" width="86.32432992019352"><g><svg xmlns="http://www.w3.org/2000/svg" xmlns:xlink="http://www.w3.org/1999/xlink" version="1.1" x="0" y="0" viewBox="249.659 107.59600000000003 524.743 580.404" enable-background="new 0 0 1024 768" xml:space="preserve" height="95.481" width="86.32432992019352" class="icon-icon-0" data-fill-palette-color="accent" id="icon-0"><g fill="#f9f9f9" data-fill-palette-color="accent"><path d="M666 365.5V276l0 0v-15.607c-1-84.296-69.123-152.797-153.804-152.797C427.163 107.596 358 176.502 358 261.103v105.659L249.659 448h36.044l225.489-160.942L736.989 446.85l37.413-0.111L666 365.5zM415 323.612V261.69c0-53.223 43.479-96.522 96.5-96.522 53.021 0 96.5 43.299 96.5 96.522v61.376l-96.664-71.411L415 323.612z" fill="#000000" data-fill-palette-color="accent"></path><path d="M322.94 450.84l-0.94-0.523V688h378V450.84L511.367 314.583 322.94 450.84zM562.211 466.759c0 18.866-10.467 35.892-25.909 44.384L554.675 609h-85.306l18.42-98.123c-15.182-8.566-25.442-25.091-25.442-43.765 0-27.577 22.355-50.109 49.931-50.109C539.854 417.003 562.211 439.182 562.211 466.759z" fill="#000000" data-fill-palette-color="accent"></path></g></svg></g></svg></g></svg></g></svg></g></svg></g></svg></g><defs></defs></svg><rect width="86.32432992019352" height="95.481" fill="none" stroke="none" visibility="hidden"></rect></g></svg></g></svg>